M48
; DRILL file KiCad 10.0.3 date 2026-07-27T16:40:04
; FORMAT={-:-/ absolute / metric / decimal}
; #@! TF.CreationDate,2026-07-27T16:40:04+10:00
; #@! TF.GenerationSoftware,Kicad,Pcbnew,10.0.3
; #@! TF.FileFunction,Plated,1,2,PTH
FMAT,2
METRIC
; #@! TA.AperFunction,Plated,PTH,ComponentDrill
T1C0.600
; #@! TA.AperFunction,Plated,PTH,ComponentDrill
T2C0.800
; #@! TA.AperFunction,Plated,PTH,ComponentDrill
T3C1.000
; #@! TA.AperFunction,Plated,PTH,ComponentDrill
T4C1.100
; #@! TA.AperFunction,Plated,PTH,ComponentDrill
T5C1.200
; #@! TA.AperFunction,Plated,PTH,ComponentDrill
T6C1.600
; #@! TA.AperFunction,Plated,PTH,ComponentDrill
T7C2.700
%
G90
G05
T2
X87.92Y-96.0
X87.92Y-100.5
X87.92Y-105.5
X87.92Y-110.5
X87.92Y-115.5
X98.08Y-96.0
X98.08Y-100.5
X98.08Y-105.5
X98.08Y-110.5
X98.08Y-115.5
X118.0Y-99.42
X118.0Y-101.96
X118.0Y-104.5
T3
X65.46Y-112.5
X68.0Y-112.5
X70.54Y-112.5
X73.08Y-112.5
X82.0Y-98.22
X82.0Y-100.76
X82.0Y-103.3
X82.0Y-105.84
X82.0Y-108.38
X82.0Y-110.92
X82.0Y-113.46
X82.0Y-116.0
X83.0Y-82.92
X83.0Y-85.46
X83.0Y-88.0
X104.86Y-98.22
X104.86Y-100.76
X104.86Y-103.3
X104.86Y-105.84
X104.86Y-108.38
X104.86Y-110.92
X104.86Y-113.46
X104.86Y-116.0
X111.0Y-100.23
X111.0Y-102.77
X123.0Y-99.42
X123.0Y-101.96
X123.0Y-104.5
T4
X91.92Y-84.5
X91.92Y-90.0
X102.08Y-84.5
X102.08Y-90.0
T5
X67.5Y-101.5
X72.5Y-101.5
T6
X64.8Y-86.5
X69.5Y-83.5
X69.5Y-89.5
T7
X112.9Y-91.15
X120.1Y-91.15
T1
G00X109.75Y-84.6
M15
G01X109.75Y-85.7
M16
G05
G00X123.25Y-84.6
M15
G01X123.25Y-85.7
M16
G05
M30
